<svg width="24" height="22" viewBox="0 0 24 22" fill="none" xmlns="http://www.w3.org/2000/svg">
<path fill-rule="evenodd" clip-rule="evenodd" d="M1.02453 1.69231H22.4259C22.8803 1.69231 23.249 1.31323 23.249 0.846154C23.249 0.379077 22.8803 0 22.4259 0H1.02453C0.571814 0 0.201405 0.379077 0.201405 0.846154C0.201405 1.31323 0.571814 1.69231 1.02453 1.69231ZM22.4259 6.76923H7.60957C7.15685 6.76923 6.78644 7.14831 6.78644 7.61538C6.78644 8.08246 7.15685 8.46154 7.60957 8.46154H22.4259C22.8803 8.46154 23.249 8.08246 23.249 7.61538C23.249 7.14662 22.8803 6.76923 22.4259 6.76923ZM22.4259 13.5367H1.02453C0.571814 13.5367 0.201405 13.9158 0.201405 14.3829C0.201405 14.8499 0.571814 15.229 1.02453 15.229H22.4259C22.8803 15.229 23.249 14.8499 23.249 14.3829C23.249 13.9158 22.8803 13.5367 22.4259 13.5367ZM22.4259 20.3077H10.079C9.62624 20.3077 9.25583 20.6868 9.25583 21.1538C9.25583 21.6209 9.62624 22 10.079 22H22.4259C22.8803 22 23.249 21.6209 23.249 21.1538C23.249 20.6868 22.8803 20.3077 22.4259 20.3077Z" fill="#2A2A2A"/>
</svg>
