<svg width="16" height="4" viewBox="0 0 16 4" fill="none" xmlns="http://www.w3.org/2000/svg">
<path fill-rule="evenodd" clip-rule="evenodd" d="M14 4.00098C12.896 4.00098 12 3.105 12 2C12 0.896 12.896 0 14 0C15.104 0 16 0.896 16 2C16 3.106 15.104 4.00098 14 4.00098ZM14 1C13.447 1 13 1.448 13 2C13 2.553 13.447 3.00098 14 3.00098C14.552 3.00098 15 2.553 15 2C15 1.448 14.552 1 14 1ZM8 4.00098C6.895 4.00098 6 3.105 6 2C6 0.896 6.895 0 8 0C9.104 0 10 0.896 10 2C10 3.106 9.104 4.00098 8 4.00098ZM8 1C7.447 1 7 1.448 7 2C7 2.553 7.447 3.00098 8 3.00098C8.552 3.00098 9 2.553 9 2C9 1.448 8.552 1 8 1ZM2 4.00098C0.896 4.00098 0 3.105 0 2C0 0.896 0.896 0 2 0C3.104 0 4 0.896 4 2C4 3.106 3.104 4.00098 2 4.00098ZM2 1C1.447 1 1 1.448 1 2C1 2.553 1.447 3.00098 2 3.00098C2.552 3.00098 3 2.553 3 2C3 1.448 2.552 1 2 1Z" fill="#2A2A2A"/>
</svg>
