<svg width="16" height="13" viewBox="0 0 16 13" fill="none" xmlns="http://www.w3.org/2000/svg">
<path fill-rule="evenodd" clip-rule="evenodd" d="M15.969 12.5011C15.969 12.7771 15.745 13.0011 15.47 13.0011H0.499023C0.223023 13.0011 0 12.7771 0 12.5011V0.501099C0 0.498099 0.00201416 0.495089 0.00201416 0.491089C0.00201416 0.484089 0.00598145 0.479046 0.00598145 0.472046C0.0119814 0.356046 0.0579814 0.252044 0.130981 0.170044C0.138981 0.161044 0.134982 0.147062 0.143982 0.138062C0.154982 0.127062 0.172021 0.131094 0.184021 0.121094C0.258021 0.0580937 0.350003 0.0190098 0.453003 0.0100098C0.473003 0.00800977 0.487019 0 0.507019 0H15.464C15.484 0 15.498 0.00800977 15.517 0.0100098C15.621 0.0200098 15.711 0.0590938 15.787 0.121094C15.799 0.131094 15.816 0.127062 15.827 0.138062C15.836 0.147062 15.832 0.161044 15.84 0.170044C15.913 0.252044 15.958 0.356046 15.965 0.472046C15.965 0.479046 15.969 0.484089 15.969 0.491089C15.969 0.494089 15.9709 0.497099 15.9709 0.501099V12.5011H15.969ZM0.997986 11.5011C0.997986 11.7771 1.22101 12.0011 1.49701 12.0011H14.472C14.747 12.0011 14.9709 11.7771 14.9709 11.5011V1.51904L8.35303 6.82703C8.34603 6.83403 8.35004 6.84603 8.34204 6.85303C8.24304 6.95203 8.11299 6.99604 7.98499 6.99304C7.85499 6.99504 7.72505 6.95203 7.62805 6.85303C7.62005 6.84603 7.62397 6.83403 7.61597 6.82703L0.999023 1.51904V11.5011H0.997986ZM7.98401 5.87109L14.0551 1.0011H1.91101L7.98401 5.87109Z" fill="white"/>
</svg>
