<svg width="29" height="26" viewBox="0 0 29 26" fill="none" xmlns="http://www.w3.org/2000/svg">
<path fill-rule="evenodd" clip-rule="evenodd" d="M14.5 26C14.5 26 0 12.4305 0 7.61223C0 2.48208 2.65169 0 8.15625 0C10.875 0 14.5 4.19429 14.5 4.19429C14.5 4.19429 18.125 0 20.8438 0C26.3483 0 29 2.48046 29 7.61223C29 12.4305 14.5 26 14.5 26ZM20.8438 1.67803C19.4137 1.67803 14.5 5.86915 14.5 5.86915C14.5 5.86915 9.5845 1.67803 8.15625 1.67803C3.33862 1.67803 1.8125 3.5089 1.8125 7.83492C1.8125 11.901 14.5 23.482 14.5 23.482C14.5 23.482 27.1875 11.901 27.1875 7.83492C27.1875 3.5089 25.6614 1.67803 20.8438 1.67803Z" fill="#2A2A2A"/>
</svg>
