<svg width="26" height="26" viewBox="0 0 26 26" fill="none" xmlns="http://www.w3.org/2000/svg">
<path fill-rule="evenodd" clip-rule="evenodd" d="M13 22.75C13.4989 22.75 13.9864 22.7192 14.469 22.672L21.125 26V20.2458C24.0955 18.161 26 14.9646 26 11.375C26 5.09275 20.1809 0 13 0C5.82075 0 0 5.09275 0 11.375C0 17.6572 5.82075 22.75 13 22.75ZM13 1.62341C19.2822 1.62341 24.375 5.98979 24.375 11.3734C24.375 14.6754 22.4364 17.563 19.5 19.3213V19.4966V23.5591L14.625 21.1234C14.625 21.1234 14.8639 21.1234 13 21.1234C6.71938 21.1234 1.625 16.757 1.625 11.3734C1.625 5.98979 6.71938 1.62341 13 1.62341Z" fill="#2A2A2A"/>
</svg>
