<svg width="26" height="26" viewBox="0 0 26 26" fill="none" xmlns="http://www.w3.org/2000/svg">
<path d="M11.2923 20.2211C6.24673 20.2211 2.16223 16.127 2.16223 11.0911C2.16223 6.04553 6.24673 1.96105 11.2923 1.96105C16.3378 1.96105 20.4223 6.04553 20.4223 11.0911C20.4223 16.127 16.3378 20.2211 11.2923 20.2211ZM25.0642 24.1901L18.7501 17.8762C20.3839 16.079 21.3834 13.7051 21.3834 11.0911C21.3834 5.51695 16.8664 1 11.2923 1C5.71815 1 1.20117 5.51695 1.20117 11.0911C1.20117 16.6652 5.71815 21.1821 11.2923 21.1821C13.9064 21.1821 16.2802 20.173 18.0774 18.5489L24.3915 24.8631C24.5741 25.0457 24.8816 25.0457 25.0642 24.8631C25.2468 24.6708 25.2468 24.3727 25.0642 24.1901Z" fill="#2A2A2A" stroke="#2A2A2A" stroke-width="0.5"/>
</svg>
