<svg width="16" height="16" viewBox="0 0 16 16" fill="none" xmlns="http://www.w3.org/2000/svg">
<path fill-rule="evenodd" clip-rule="evenodd" d="M15.8099 6.35999L12.056 10.1221L13.4659 15.35C13.4789 15.396 13.475 15.4411 13.475 15.4871C13.476 15.5001 13.4779 15.509 13.4769 15.521C13.4679 15.639 13.417 15.7441 13.337 15.8301C13.331 15.8351 13.334 15.842 13.328 15.847C13.325 15.85 13.321 15.8481 13.317 15.8521C13.256 15.9101 13.186 15.9581 13.098 15.9821C13.052 15.9941 13.0069 15.991 12.9609 15.99L12.96 15.991C12.835 15.989 12.723 15.945 12.631 15.866C12.62 15.858 12.6059 15.862 12.5959 15.853L7.98499 12.572L3.37402 15.853C3.36402 15.862 3.34899 15.858 3.33899 15.866C3.24699 15.945 3.13401 15.989 3.01001 15.991L3.00903 15.99C2.96303 15.991 2.91697 15.9941 2.87097 15.9821C2.78397 15.9591 2.71395 15.9101 2.65295 15.8521C2.64895 15.8481 2.64399 15.85 2.64099 15.847C2.63599 15.842 2.63793 15.8351 2.63293 15.8301C2.55293 15.7441 2.50192 15.64 2.49292 15.521C2.49192 15.509 2.494 15.5001 2.495 15.4871C2.494 15.4421 2.49103 15.396 2.50403 15.35L3.91394 10.1221L0.160034 6.35999C0.0620342 6.26799 0 6.14105 0 5.99805C0 5.99105 0.00402832 5.98407 0.00402832 5.97607C0.0100283 5.85407 0.0570098 5.74501 0.13501 5.66101C0.14001 5.65501 0.137944 5.64599 0.142944 5.64099C0.147944 5.63499 0.156964 5.63806 0.162964 5.63306C0.246964 5.55506 0.357004 5.506 0.479004 5.5C0.486004 5.5 0.492023 5.49597 0.499023 5.49597H4.70801L7.55298 0.234985C7.55898 0.224985 7.56797 0.221013 7.57397 0.213013C7.59197 0.187013 7.61494 0.163968 7.63794 0.141968C7.66294 0.117968 7.68599 0.0950264 7.71399 0.0770264C7.72199 0.0720264 7.72699 0.0629834 7.73499 0.0579834C7.75399 0.0469834 7.77395 0.0470625 7.79395 0.0390625C7.82495 0.0250625 7.85697 0.0140801 7.89197 0.00708008C7.92297 8.00779e-05 7.95396 0 7.98596 0C8.01696 0 8.04896 8.00779e-05 8.07996 0.00708008C8.11396 0.0140801 8.14498 0.0260625 8.17798 0.0390625C8.19798 0.0470625 8.21694 0.0469834 8.23694 0.0579834C8.24494 0.0629834 8.24993 0.0720264 8.25793 0.0770264C8.28593 0.0960264 8.30901 0.117968 8.33301 0.141968C8.35701 0.163968 8.38095 0.187013 8.39795 0.213013C8.40395 0.221013 8.41297 0.225985 8.41797 0.234985L11.2629 5.49597H15.4719H15.473C15.479 5.49597 15.4849 5.5 15.4919 5.5C15.6149 5.506 15.725 5.55506 15.809 5.63306C15.815 5.63806 15.823 5.63499 15.829 5.64099C15.834 5.64599 15.831 5.65501 15.837 5.66101C15.914 5.74501 15.962 5.85407 15.968 5.97607C15.968 5.98407 15.9719 5.99007 15.9719 5.99707C15.9699 6.14107 15.9069 6.26899 15.8099 6.35999Z" fill="#2A2A2A"/>
</svg>
